<?xml version="1.0" standalone="no"?><!DOCTYPE svg PUBLIC "-//W3C//DTD SVG 1.1//EN" "http://www.w3.org/Graphics/SVG/1.1/DTD/svg11.dtd"><svg t="1696924697761" class="icon" viewBox="0 0 1024 1024" version="1.1" xmlns="http://www.w3.org/2000/svg" p-id="5822" xmlns:xlink="http://www.w3.org/1999/xlink" width="200" height="200"><path d="M950.6 905.4L718.5 673.2c50.9-61 81.5-139.6 81.5-225.2 0-194.4-157.6-352-352-352S96 253.6 96 448s157.6 352 352 352c85.7 0 164.2-30.6 225.2-81.5l232.1 232.1 45.3-45.2zM448 736c-38.9 0-76.6-7.6-112.1-22.6-34.3-14.5-65.1-35.3-91.6-61.7s-47.2-57.3-61.7-91.6c-15-35.5-22.6-73.2-22.6-112.1 0-38.9 7.6-76.6 22.6-112.1 14.5-34.3 35.3-65.1 61.7-91.6 26.4-26.5 57.3-47.2 91.6-61.7 35.5-15 73.2-22.6 112.1-22.6 38.9 0 76.6 7.6 112.1 22.6 34.3 14.5 65.1 35.3 91.6 61.7 26.5 26.4 47.2 57.3 61.7 91.6 15 35.5 22.6 73.2 22.6 112.1s-7.6 76.6-22.6 112.1c-14.5 34.3-35.3 65.1-61.7 91.6s-57.3 47.2-91.6 61.7c-35.5 15-73.2 22.6-112.1 22.6z" fill="#CCCCCC" p-id="5823"></path></svg>